<?xml version="1.0" encoding="UTF-8"?>
<svg xmlns="http://www.w3.org/2000/svg" xmlns:xlink="http://www.w3.org/1999/xlink" width="30pt" height="30pt" viewBox="0 0 40 40" version="1.1">
<g id="surface465687">
<path style=" stroke:none;fill-rule:nonzero;fill:rgb(0%,71.764706%,9.803922%);fill-opacity:1;" d="M 11.609375 0 C 5.214844 0 0 5.214844 0 11.609375 L 0 28.390625 C 0 34.785156 5.214844 40 11.609375 40 L 28.390625 40 C 34.785156 40 40 34.785156 40 28.390625 L 40 11.609375 C 40 5.214844 34.785156 0 28.390625 0 Z M 11.609375 3.078125 L 28.390625 3.078125 C 33.117188 3.078125 36.921875 6.875 36.921875 11.609375 L 36.921875 28.390625 C 36.921875 33.117188 33.125 36.921875 28.390625 36.921875 L 11.609375 36.921875 C 6.882812 36.921875 3.078125 33.125 3.078125 28.390625 L 3.078125 11.609375 C 3.078125 6.882812 6.875 3.078125 11.609375 3.078125 Z M 31.539062 6.152344 C 30.265625 6.152344 29.230469 7.1875 29.230469 8.460938 C 29.230469 9.734375 30.265625 10.769531 31.539062 10.769531 C 32.8125 10.769531 33.847656 9.734375 33.847656 8.460938 C 33.847656 7.1875 32.8125 6.152344 31.539062 6.152344 Z M 20 9.230469 C 14.070312 9.230469 9.230469 14.070312 9.230469 20 C 9.230469 25.929688 14.070312 30.769531 20 30.769531 C 25.929688 30.769531 30.769531 25.929688 30.769531 20 C 30.769531 14.070312 25.929688 9.230469 20 9.230469 Z M 20 12.308594 C 24.265625 12.308594 27.691406 15.734375 27.691406 20 C 27.691406 24.265625 24.265625 27.691406 20 27.691406 C 15.734375 27.691406 12.308594 24.265625 12.308594 20 C 12.308594 15.734375 15.734375 12.308594 20 12.308594 Z M 20 12.308594 "/>
</g>
</svg>
