<svg
    xmlns="http://www.w3.org/2000/svg" x="0px" y="0px"
width="50" height="50"
viewBox="0 0 172 172"
style=" fill:#000000;">
    <style>
.boxTop{
  <!-- fill: slateblue; -->
}

.pfeil{
    fill: #00b719
}
</style>
    <g fill="none" fill-rule="nonzero" stroke="none" stroke-width="1" stroke-linecap="butt" stroke-linejoin="miter" stroke-miterlimit="10" stroke-dasharray="" stroke-dashoffset="0" font-family="none" font-weight="none" font-size="none" text-anchor="none" style="mix-blend-mode: normal">
        <path d="M0,172v-172h172v172z" fill="none" class="boxTop"></path>
        <g fill="#00b719" class="pfeil">
            <path d="M86,0.09798c-22.04467,0 -44.09527,8.35992 -60.81868,25.08333c-33.44683,33.44683 -33.44683,88.17654 0,121.62337c33.44683,33.44683 88.17654,33.44683 121.62337,0c33.44683,-33.44683 33.44683,-88.17654 0,-121.62337c-16.72342,-16.72342 -38.76002,-25.08333 -60.80469,-25.08333zM86,14.41732c18.36996,0 36.73499,6.97653 50.67057,20.91211c27.87117,27.87117 27.87117,73.46998 0,101.34114c-27.87116,27.87117 -73.46998,27.87117 -101.34114,0c-27.87117,-27.87116 -27.87117,-73.46998 0,-101.34114c13.93558,-13.93558 32.30061,-20.91211 50.67057,-20.91211zM86,35.32943l-50.67057,50.67057l12.26172,12.26172l31.27018,-31.27019l-0.02799,69.17513h14.33333l-0.02799,-69.17513l31.22819,31.21419l12.3037,-12.20573z"></path>
        </g>
    </g>
</svg>