<?xml version="1.0" encoding="UTF-8"?>
<svg xmlns="http://www.w3.org/2000/svg" xmlns:xlink="http://www.w3.org/1999/xlink" width="30pt" height="30pt" viewBox="0 0 30 30" version="1.1">
<g id="surface538274">
<path style=" stroke:none;fill-rule:nonzero;fill:rgb(0%,71.764706%,9.803922%);fill-opacity:1;" d="M 28.0625 21.046875 C 24.582031 20.472656 22.988281 16.867188 22.9375 16.75 C 22.929688 16.726562 22.914062 16.691406 22.90625 16.667969 C 22.800781 16.457031 22.695312 16.160156 22.785156 15.949219 C 22.9375 15.589844 23.660156 15.359375 24.09375 15.21875 C 24.246094 15.171875 24.390625 15.125 24.503906 15.082031 C 25.554688 14.664062 26.082031 14.121094 26.070312 13.460938 C 26.058594 12.929688 25.652344 12.441406 25.050781 12.230469 C 24.84375 12.140625 24.605469 12.097656 24.363281 12.097656 C 24.199219 12.097656 23.949219 12.121094 23.710938 12.230469 C 23.3125 12.417969 22.960938 12.519531 22.707031 12.53125 C 22.65625 12.527344 22.609375 12.523438 22.566406 12.515625 L 22.59375 12.101562 C 22.710938 10.238281 22.859375 7.914062 22.226562 6.5 C 20.367188 2.335938 16.425781 2.011719 15.261719 2.011719 L 14.730469 2.015625 C 13.566406 2.015625 9.632812 2.339844 7.777344 6.5 C 7.144531 7.914062 7.292969 10.238281 7.410156 12.105469 L 7.414062 12.175781 C 7.421875 12.289062 7.429688 12.40625 7.4375 12.515625 C 7.175781 12.5625 6.667969 12.476562 6.140625 12.230469 C 5.421875 11.894531 4.132812 12.335938 3.953125 13.273438 C 3.875 13.691406 3.96875 14.476562 5.5 15.078125 C 5.613281 15.125 5.757812 15.171875 5.910156 15.21875 C 6.34375 15.359375 7.066406 15.585938 7.21875 15.949219 C 7.308594 16.160156 7.203125 16.457031 7.078125 16.714844 C 7.011719 16.867188 5.429688 20.472656 1.941406 21.046875 C 1.496094 21.121094 1.179688 21.511719 1.203125 21.96875 C 1.210938 22.085938 1.238281 22.207031 1.289062 22.324219 C 1.605469 23.066406 2.757812 23.578125 4.902344 23.925781 C 4.941406 24.054688 4.984375 24.242188 5.007812 24.34375 C 5.050781 24.558594 5.101562 24.773438 5.164062 25 C 5.230469 25.210938 5.445312 25.707031 6.125 25.707031 C 6.332031 25.707031 6.558594 25.660156 6.800781 25.613281 C 7.15625 25.542969 7.601562 25.457031 8.171875 25.457031 C 8.492188 25.457031 8.820312 25.484375 9.148438 25.539062 C 9.757812 25.640625 10.308594 26.03125 10.949219 26.480469 C 11.949219 27.191406 13.082031 27.988281 14.835938 27.988281 C 14.882812 27.988281 14.929688 27.988281 14.972656 27.984375 C 15.039062 27.988281 15.101562 27.988281 15.167969 27.988281 C 16.925781 27.988281 18.054688 27.1875 19.058594 26.480469 C 19.667969 26.046875 20.242188 25.644531 20.855469 25.539062 C 21.183594 25.484375 21.511719 25.457031 21.832031 25.457031 C 22.382812 25.457031 22.820312 25.527344 23.207031 25.605469 C 23.484375 25.660156 23.703125 25.683594 23.910156 25.683594 C 24.363281 25.683594 24.710938 25.425781 24.839844 24.988281 C 24.90625 24.769531 24.953125 24.554688 25 24.339844 C 25.015625 24.261719 25.0625 24.058594 25.101562 23.925781 C 27.25 23.574219 28.398438 23.066406 28.714844 22.328125 C 28.765625 22.210938 28.792969 22.089844 28.800781 21.964844 C 28.824219 21.515625 28.507812 21.121094 28.0625 21.046875 Z M 28.0625 21.046875 "/>
</g>
</svg>
